<?xml version="1.0" standalone="no"?>
<!DOCTYPE svg PUBLIC "-//W3C//DTD SVG 20010904//EN"
 "http://www.w3.org/TR/2001/REC-SVG-20010904/DTD/svg10.dtd">
<svg version="1.0" xmlns="http://www.w3.org/2000/svg"
 width="512.000000pt" height="512.000000pt" viewBox="0 0 512.000000 512.000000"
 preserveAspectRatio="xMidYMid meet">

<g transform="translate(0.000000,512.000000) scale(0.100000,-0.100000)"
fill="#000000" stroke="none">
<path d="M212 4197 l-22 -23 0 -1615 c0 -1612 0 -1615 20 -1637 l21 -22 2329
0 2329 0 21 22 c20 22 20 25 20 1638 0 1613 0 1616 -20 1638 l-21 22 -2328 0
-2328 0 -21 -23z m4433 -136 c-63 -61 -2081 -1791 -2087 -1789 -4 2 -157 132
-340 289 -1048 900 -1725 1483 -1743 1500 -19 19 16 19 2085 19 2074 0 2104 0
2085 -19z m-3340 -900 c226 -195 409 -359 409 -366 -1 -9 -1197 -1424 -1351
-1598 l-33 -37 0 1420 0 1420 283 -243 c155 -134 467 -402 692 -596z m3485
-586 l0 -1415 -33 37 c-148 167 -1350 1589 -1351 1598 -1 11 1361 1193 1377
1194 4 1 7 -636 7 -1414z m-2612 -166 c185 -160 347 -295 360 -300 13 -5 31
-5 45 0 12 5 175 141 361 302 240 206 343 289 352 283 7 -5 326 -378 709 -829
l697 -820 -1071 -3 c-589 -1 -1553 -1 -2142 0 l-1071 3 703 827 c387 455 708
828 712 828 4 0 160 -131 345 -291z"/>
</g>
</svg>
