<?xml version="1.0" standalone="no"?>
<!DOCTYPE svg PUBLIC "-//W3C//DTD SVG 20010904//EN"
 "http://www.w3.org/TR/2001/REC-SVG-20010904/DTD/svg10.dtd">
<svg version="1.0" xmlns="http://www.w3.org/2000/svg"
 width="150.000000pt" height="49.000000pt" viewBox="0 0 150.000000 49.000000"
 preserveAspectRatio="xMidYMid meet">

<g transform="translate(0.000000,49.000000) scale(0.100000,-0.100000)"
fill="#000000" stroke="none">
<path d="M736 458 c-12 -49 -38 -247 -43 -323 -6 -89 5 -115 51 -115 31 0 53
26 74 90 l18 53 32 -55 c29 -52 73 -98 94 -98 23 0 18 32 -10 55 -36 30 -82
118 -82 156 0 35 51 132 101 191 22 27 37 52 34 58 -30 48 -141 -111 -205
-295 -31 -89 -53 -125 -67 -112 -4 4 4 89 16 190 13 100 24 191 25 202 2 29
-32 32 -38 3z"/>
<path d="M1046 314 c-7 -19 1 -34 19 -34 15 0 28 27 19 41 -9 14 -31 10 -38
-7z"/>
<path d="M1201 292 c-5 -9 -7 -29 -4 -43 10 -51 -86 -189 -131 -189 -49 0 -59
46 -28 128 10 26 17 53 14 60 -16 48 -72 -55 -72 -133 0 -59 32 -95 85 -95 42
0 105 52 136 112 11 21 24 38 29 38 14 0 30 -35 30 -69 0 -34 -31 -51 -55 -31
-12 10 -18 10 -31 -1 -15 -12 -14 -15 6 -31 12 -10 37 -18 54 -18 42 0 115 49
151 100 15 22 31 40 35 40 14 0 32 -58 25 -80 -6 -20 -12 -21 -51 -15 -36 5
-44 3 -44 -9 0 -39 87 -49 120 -14 27 29 25 73 -5 131 -19 34 -24 57 -20 80 7
40 -6 60 -36 55 -22 -3 -24 -8 -24 -58 0 -57 -2 -63 -43 -118 l-25 -32 -33 67
c-20 38 -32 75 -28 85 14 46 -33 81 -55 40z"/>
<path d="M390 170 c0 -15 -7 -20 -25 -20 -29 0 -49 -32 -41 -65 7 -26 25 -36
55 -28 19 5 21 13 21 69 0 35 -2 64 -5 64 -3 0 -5 -9 -5 -20z m-10 -45 c17
-20 8 -50 -15 -50 -20 0 -31 25 -21 51 7 18 20 18 36 -1z"/>
<path d="M125 170 c-25 -40 9 -140 37 -112 9 9 8 12 -5 12 -13 0 -17 9 -17 35
0 21 5 35 13 35 8 0 9 3 1 8 -6 4 -13 14 -16 22 -4 12 -6 12 -13 0z"/>
<path d="M17 143 c-14 -14 -6 -34 18 -43 14 -5 25 -15 25 -21 0 -7 -9 -9 -25
-5 -30 8 -34 -10 -5 -19 23 -7 50 10 50 31 0 8 -11 19 -25 24 -30 11 -34 35
-5 27 11 -3 20 -1 20 4 0 10 -43 12 -53 2z"/>
<path d="M200 111 c0 -46 15 -61 53 -54 25 5 27 9 27 49 0 54 -18 59 -22 7 -2
-27 -8 -39 -20 -41 -15 -3 -18 4 -18 37 0 23 -4 41 -10 41 -5 0 -10 -17 -10
-39z"/>
<path d="M450 105 c0 -25 5 -45 10 -45 6 0 10 20 10 45 0 25 -4 45 -10 45 -5
0 -10 -20 -10 -45z"/>
<path d="M520 131 c-15 -28 -12 -46 8 -64 26 -23 39 -21 58 8 14 21 15 31 6
50 -14 31 -57 34 -72 6z m56 -17 c8 -29 -7 -49 -30 -41 -16 6 -22 48 -9 60 14
15 33 6 39 -19z"/>
</g>
</svg>
